<svg width="39" height="32" viewBox="0 0 39 32" fill="none" xmlns="http://www.w3.org/2000/svg">
<g id="Vector" filter="url(#filter0_d_2166_263)">
<path d="M28.8046 19.187H25.7863C25.846 19.0727 25.8792 18.9473 25.8792 18.8157V10.2446C25.8792 9.71309 25.3406 9.28068 24.6787 9.28068H20.5576C20.5618 9.25317 20.5647 9.22536 20.5647 9.19696V4.31822C20.5647 3.94527 20.1868 3.64186 19.7224 3.64186H13.6467C13.6113 3.64186 13.5767 3.64418 13.5425 3.64759V3.62734C13.5425 3.05698 13.3314 2.52361 12.9317 2.08487C12.5984 1.71894 11.8199 1.17451 11.041 1.17451H10.3682C10.2452 1.05217 10.0572 0.973685 9.8467 0.973685H5.38473C4.62123 0.973685 4 1.47253 4 2.08566C4 2.6988 4.62123 3.19759 5.38473 3.19759H9.8467C10.0572 3.19759 10.2451 3.11906 10.3681 2.99677H10.7315C11.0282 2.99677 11.2754 3.15215 11.3466 3.3836C11.3699 3.45971 11.3818 3.54061 11.3818 3.62408C11.3817 5.61788 11.3817 11.1729 11.3817 14.6275V16.2078C9.62213 16.5289 8.14594 17.6182 7.68949 19.1189C7.3782 20.1425 7.58204 21.2023 8.2633 22.1028C8.94462 23.0034 10.0219 23.637 11.2967 23.887C11.6866 23.9635 12.0771 24 12.4618 24C14.6731 24 16.6871 22.7904 17.2346 20.9904C17.2415 20.9677 17.2468 20.9449 17.2532 20.9221H28.8046C29.4003 20.9221 29.8849 20.5329 29.8849 20.0546C29.8849 19.5762 29.4003 19.187 28.8046 19.187ZM9.77873 2.60481H5.38473C5.02823 2.60481 4.7381 2.37188 4.7381 2.08556C4.7381 1.79925 5.02817 1.56632 5.38473 1.56632H9.77873V2.60481ZM21.482 9.87342V14.0562L19.5262 13.1495C19.412 13.0965 19.2713 13.0965 19.1572 13.1495L17.2014 14.0562V9.87342H21.482ZM15.8056 4.23455H17.5634V5.9077L16.869 5.58577C16.7548 5.53283 16.6142 5.53283 16.5 5.58577L15.8056 5.9077V4.23455ZM13.5424 6.93601V4.31787C13.5427 4.27268 13.5903 4.23455 13.6466 4.23455H15.0675V6.42102C15.0675 6.52691 15.1379 6.6247 15.252 6.67765C15.3661 6.7306 15.5068 6.7306 15.6211 6.67765L16.6845 6.18463L17.7479 6.67765C17.805 6.70412 17.8687 6.71736 17.9324 6.71736C17.9961 6.71736 18.0599 6.70412 18.1169 6.67765C18.2311 6.6247 18.3015 6.52686 18.3015 6.42102V4.23455H19.7224C19.7789 4.23455 19.8266 4.27287 19.8266 4.31822V9.19696C19.8266 9.2423 19.7789 9.28063 19.7224 9.28063H13.6467C13.5902 9.28063 13.5425 9.2423 13.5425 9.19696L13.5424 6.93601ZM10.7314 2.40404H10.5168V1.76719H11.0409C11.4519 1.76719 12.0423 2.11233 12.3359 2.43476C12.6424 2.77125 12.8044 3.18367 12.8044 3.62734V4.31752V10.2447V16.12C12.5743 16.107 12.3456 16.1068 12.1198 16.1196V14.6274C12.1198 11.1728 12.1198 5.61783 12.1199 3.62398C12.1199 3.4926 12.1008 3.36384 12.0631 3.24135C11.9115 2.74834 11.3639 2.40404 10.7314 2.40404ZM16.5175 20.8498C16.0524 22.3795 14.341 23.4074 12.4618 23.4073C12.135 23.4073 11.8029 23.3762 11.4716 23.3112C10.3884 23.0988 9.47298 22.5604 8.894 21.7951C8.31509 21.0299 8.14188 20.1293 8.40643 19.2594C8.87155 17.7298 10.5828 16.7021 12.4621 16.7021C12.7889 16.7021 13.121 16.7332 13.4523 16.7981C15.6885 17.2366 17.0635 19.0542 16.5175 20.8498ZM16.6607 18.0065C15.9795 17.1059 14.9022 16.4723 13.6273 16.2223C13.5991 16.2168 13.5708 16.2126 13.5424 16.2075V10.2447C13.5424 10.04 13.7498 9.87347 14.0048 9.87347H16.4634V14.5695C16.4634 14.6754 16.5338 14.7732 16.6479 14.8262C16.7051 14.8526 16.7687 14.8659 16.8325 14.8659C16.8962 14.8659 16.9599 14.8526 17.017 14.8262L19.3417 13.7483L21.6666 14.8261C21.7808 14.879 21.9215 14.879 22.0356 14.8261C22.1498 14.7732 22.2201 14.6753 22.2201 14.5695V9.87347H24.6787C24.9337 9.87347 25.1411 10.04 25.1411 10.2447V18.8158C25.1411 19.0206 24.9337 19.1871 24.6787 19.1871H17.2556C17.1397 18.7758 16.9414 18.3775 16.6607 18.0065ZM28.8046 20.3294H17.3627C17.3791 20.1457 17.3797 19.9621 17.3641 19.7798H28.8046C28.9933 19.7798 29.1468 19.9031 29.1468 20.0546C29.1468 20.2061 28.9933 20.3294 28.8046 20.3294ZM13.1964 17.6395C12.3929 17.482 11.5613 17.5851 10.8546 17.9299C10.1478 18.2746 9.65055 18.8198 9.45434 19.4649C9.25819 20.11 9.38656 20.7778 9.81595 21.3454C10.2453 21.9129 10.9243 22.3122 11.7275 22.4697C11.9731 22.5179 12.2212 22.5416 12.4676 22.5416C13.0276 22.5416 13.5786 22.4188 14.0693 22.1794C14.7761 21.8346 15.2734 21.2894 15.4696 20.6444C15.6658 19.9993 15.5374 19.3315 15.108 18.7639C14.6786 18.1964 13.9997 17.797 13.1964 17.6395ZM14.7526 20.5037C14.6032 20.995 14.2245 21.4103 13.6862 21.6728C13.1478 21.9353 12.5145 22.0139 11.9027 21.8939C11.2908 21.774 10.7737 21.4699 10.4468 21.0377C10.1198 20.6054 10.022 20.0968 10.1714 19.6055C10.3208 19.1142 10.6995 18.699 11.2378 18.4365C11.6116 18.2541 12.0312 18.1605 12.4577 18.1605C12.6453 18.1605 12.8343 18.1786 13.0212 18.2153C13.6331 18.3353 14.1502 18.6393 14.4771 19.0716C14.8041 19.5038 14.902 20.0125 14.7526 20.5037ZM12.9227 18.5394C11.8822 18.3355 10.8292 18.8492 10.575 19.6847C10.321 20.5201 10.9607 21.3658 12.0013 21.5699C12.1555 21.6001 12.3098 21.6145 12.4619 21.6145C13.3362 21.6145 14.1326 21.1362 14.349 20.4246C14.472 20.0199 14.3915 19.6009 14.1221 19.2448C13.8528 18.8888 13.4268 18.6383 12.9227 18.5394ZM13.6318 20.284C13.4744 20.802 12.8217 21.1206 12.1763 20.994C11.5312 20.8676 11.1346 20.3432 11.2921 19.8253C11.4263 19.384 11.9199 19.0875 12.462 19.0875C12.5562 19.0875 12.6521 19.0965 12.7477 19.1152C13.0602 19.1765 13.3242 19.3318 13.4912 19.5525C13.6583 19.7733 13.7082 20.0331 13.6318 20.284ZM29.1217 0C25.8805 0 23.2435 2.11747 23.2435 4.7202C23.2435 7.32294 25.8805 9.44041 29.1217 9.44041C32.363 9.44041 35 7.32294 35 4.7202C35 2.11747 32.363 0 29.1217 0ZM29.1217 8.84777C26.2875 8.84777 23.9816 6.99617 23.9816 4.72025C23.9816 2.44434 26.2875 0.592736 29.1217 0.592736C31.956 0.592736 34.2619 2.44434 34.2619 4.72025C34.2619 6.99617 31.956 8.84777 29.1217 8.84777ZM31.8079 2.58564C31.3162 2.29636 30.6232 2.38211 30.2634 2.77649L28.5566 4.64059L27.9804 4.01145C27.6202 3.61682 26.9272 3.53108 26.4355 3.82031C25.9441 4.10964 25.8372 4.66617 26.1976 5.06085L27.6651 6.66362C27.8396 6.85486 28.0965 6.98002 28.3883 7.01612C28.4453 7.02319 28.5023 7.02669 28.5588 7.02669C28.792 7.02669 29.0184 6.96757 29.2098 6.85486C29.3066 6.79797 29.3905 6.72946 29.4594 6.65123L32.0461 3.82629C32.4063 3.43151 32.2994 2.87492 31.8079 2.58564ZM31.451 3.47556L28.8624 6.30263C28.8608 6.30446 28.859 6.30628 28.8574 6.30816C28.8346 6.33439 28.8064 6.3574 28.7736 6.37676C28.6945 6.42334 28.5978 6.4425 28.5006 6.43035C28.4037 6.4184 28.3184 6.37681 28.2601 6.31295L26.7926 4.71023C26.6732 4.5791 26.7088 4.39438 26.8719 4.29836C27.0352 4.20225 27.2654 4.23074 27.3855 4.36222L28.2593 5.31645C28.3288 5.39236 28.4393 5.43721 28.5566 5.43721C28.674 5.43721 28.7844 5.39236 28.8539 5.3164L30.8584 3.12721C30.9781 2.99608 31.2083 2.96763 31.3717 3.0637C31.535 3.15981 31.5703 3.34473 31.451 3.47556Z" fill="white"/>
</g>
<defs>
<filter id="filter0_d_2166_263" x="0" y="0" width="39" height="32" filterUnits="userSpaceOnUse" color-interpolation-filters="sRGB">
<feFlood flood-opacity="0" result="BackgroundImageFix"/>
<feColorMatrix in="SourceAlpha" type="matrix" values="0 0 0 0 0 0 0 0 0 0 0 0 0 0 0 0 0 0 127 0" result="hardAlpha"/>
<feOffset dy="4"/>
<feGaussianBlur stdDeviation="2"/>
<feComposite in2="hardAlpha" operator="out"/>
<feColorMatrix type="matrix" values="0 0 0 0 0 0 0 0 0 0 0 0 0 0 0 0 0 0 0.25 0"/>
<feBlend mode="normal" in2="BackgroundImageFix" result="effect1_dropShadow_2166_263"/>
<feBlend mode="normal" in="SourceGraphic" in2="effect1_dropShadow_2166_263" result="shape"/>
</filter>
</defs>
</svg>
