<svg width="20" height="20" viewBox="0 0 20 20" fill="none" xmlns="http://www.w3.org/2000/svg">
<path id="Vector" d="M2 3.99994H0V17.9999C0 19.0999 0.9 19.9999 2 19.9999H16V17.9999H2V3.99994ZM18 -6.10352e-05H6C4.9 -6.10352e-05 4 0.899939 4 1.99994V13.9999C4 15.0999 4.9 15.9999 6 15.9999H18C19.1 15.9999 20 15.0999 20 13.9999V1.99994C20 0.899939 19.1 -6.10352e-05 18 -6.10352e-05ZM18 13.9999H6V1.99994H18V13.9999ZM8 6.99994H16V8.99994H8V6.99994ZM8 9.99994H12V11.9999H8V9.99994ZM8 3.99994H16V5.99994H8V3.99994Z" fill="white"/>
</svg>
