<svg width="20" height="14" viewBox="0 0 20 14" fill="none" xmlns="http://www.w3.org/2000/svg">
<g id="icono proveedores">
<path id="Vector" d="M13.8918 7.94083C15.0334 8.71583 15.8334 9.76583 15.8334 11.1658V13.6658H19.1668V11.1658C19.1668 9.34916 16.1918 8.27416 13.8918 7.94083Z" fill="white"/>
<path id="Vector_2" d="M12.5 6.99925C14.3417 6.99925 15.8334 5.50758 15.8334 3.66591C15.8334 1.82425 14.3417 0.332581 12.5 0.332581C12.1084 0.332581 11.7417 0.415914 11.3917 0.53258C12.0834 1.39091 12.5 2.48258 12.5 3.66591C12.5 4.84925 12.0834 5.94091 11.3917 6.79925C11.7417 6.91591 12.1084 6.99925 12.5 6.99925Z" fill="white"/>
<path id="Vector_3" d="M7.50017 6.99925C9.34184 6.99925 10.8335 5.50758 10.8335 3.66591C10.8335 1.82425 9.34184 0.332581 7.50017 0.332581C5.65851 0.332581 4.16684 1.82425 4.16684 3.66591C4.16684 5.50758 5.65851 6.99925 7.50017 6.99925ZM7.50017 1.99925C8.41684 1.99925 9.16684 2.74925 9.16684 3.66591C9.16684 4.58258 8.41684 5.33258 7.50017 5.33258C6.58351 5.33258 5.83351 4.58258 5.83351 3.66591C5.83351 2.74925 6.58351 1.99925 7.50017 1.99925Z" fill="white"/>
<path id="Vector_4" d="M7.50019 7.83276C5.27519 7.83276 0.833527 8.94943 0.833527 11.1661V13.6661H14.1669V11.1661C14.1669 8.94943 9.72519 7.83276 7.50019 7.83276ZM12.5002 11.9994H2.50019V11.1744C2.66686 10.5744 5.25019 9.49943 7.50019 9.49943C9.75019 9.49943 12.3335 10.5744 12.5002 11.1661V11.9994Z" fill="white"/>
</g>
</svg>
